<svg width="40" height="40" viewBox="0 0 40 40" fill="none" xmlns="http://www.w3.org/2000/svg">
<g clip-path="url(#clip0_181_239)">
<path d="M29.6438 14.4031C32.5622 16.2438 36.1375 17.3268 39.9989 17.3268V10.771C39.2681 10.7712 38.5392 10.7039 37.8242 10.5701V15.7305C33.9631 15.7305 30.3883 14.6476 27.4692 12.8071V26.1858C27.4692 32.8787 21.3199 38.3038 13.7349 38.3038C10.9047 38.3038 8.27408 37.5489 6.08893 36.2541C8.58299 38.5042 12.0611 39.8999 15.9089 39.8999C23.4946 39.8999 29.6441 34.4748 29.6441 27.7817V14.4031H29.6438ZM32.3266 7.78902C30.835 6.35136 29.8556 4.49343 29.6438 2.43936V1.59619H27.583C28.1017 4.20681 29.8713 6.43716 32.3266 7.78902ZM10.8864 31.1184C10.053 30.1545 9.60259 28.9751 9.60471 27.7625C9.60471 24.7016 12.4174 22.2196 15.8875 22.2196C16.5341 22.2193 17.1769 22.3069 17.7933 22.4794V15.7769C17.073 15.6898 16.3461 15.6527 15.6196 15.6664V20.8832C15.0029 20.7108 14.3597 20.6232 13.7128 20.6236C10.2428 20.6236 7.43033 23.1053 7.43033 26.1667C7.43033 28.3314 8.83611 30.2054 10.8864 31.1184Z" fill="#FF004F"/>
<path d="M27.4692 12.807C30.3885 14.6475 33.963 15.7304 37.8242 15.7304V10.57C35.6689 10.1649 33.761 9.17123 32.3264 7.78902C29.871 6.43702 28.1017 4.20667 27.583 1.59619H22.17V27.7814C22.1577 30.8341 19.3499 33.3059 15.8872 33.3059C13.8469 33.3059 12.0341 32.4478 10.8861 31.1183C8.83612 30.2054 7.43019 28.3312 7.43019 26.1668C7.43019 23.1057 10.2427 20.6238 13.7127 20.6238C14.3775 20.6238 15.0183 20.7151 15.6194 20.8834V15.6665C8.16753 15.8024 2.17456 21.1745 2.17456 27.7816C2.17456 31.0798 3.6669 34.0697 6.08909 36.2544C8.27425 37.5489 10.9047 38.3041 13.735 38.3041C21.3202 38.3041 27.4694 32.8785 27.4694 26.1858L27.4692 12.807Z" fill="black"/>
<path d="M37.8242 10.5697V9.17462C35.8806 9.17711 33.9755 8.69688 32.3264 7.78883C33.7861 9.19877 35.7082 10.1711 37.8242 10.5699M27.5828 1.59586C27.5334 1.34642 27.4955 1.09532 27.4691 0.843172V0H19.995V26.1855C19.9831 29.2379 17.1753 31.7097 13.7125 31.7097C12.7308 31.7109 11.7626 31.5084 10.8859 31.1183C12.0339 32.4476 13.8467 33.3055 15.887 33.3055C19.3495 33.3055 22.1577 30.8341 22.1698 27.7814V1.596L27.5828 1.59586ZM15.6197 15.6662V14.1808C14.9951 14.1056 14.3655 14.0679 13.7352 14.068C6.14922 14.068 0 19.4934 0 26.1855C0 30.3812 2.41672 34.0789 6.08922 36.2539C3.66703 34.0694 2.17469 31.0793 2.17469 27.7812C2.17469 21.1743 8.1675 15.8021 15.6197 15.6662Z" fill="#00F2EA"/>
</g>
<defs>
<clipPath id="clip0_181_239">
<rect width="40" height="40" fill="white"/>
</clipPath>
</defs>
</svg>
