<svg width="56" height="40" viewBox="0 0 56 40" fill="none" xmlns="http://www.w3.org/2000/svg">
<g clip-path="url(#clip0_181_236)">
<path d="M54.7632 6.23889C54.442 5.03301 53.8155 3.93365 52.9459 3.05028C52.0764 2.16692 50.9943 1.53036 49.8072 1.204C45.4615 0 27.9716 0 27.9716 0C27.9716 0 10.4808 0.0364443 6.1351 1.24044C4.94806 1.56682 3.86589 2.20341 2.99636 3.08682C2.12683 3.97023 1.50028 5.06964 1.1791 6.27556C-0.135364 14.1196 -0.645271 26.072 1.2152 33.6022C1.5364 34.8081 2.16297 35.9075 3.0325 36.7908C3.90202 37.6742 4.98418 38.3108 6.1712 38.6371C10.5169 39.8411 28.0073 39.8411 28.0073 39.8411C28.0073 39.8411 45.4974 39.8411 49.8429 38.6371C51.0299 38.3108 52.1121 37.6742 52.9817 36.7909C53.8513 35.9075 54.4779 34.8081 54.7991 33.6022C56.1855 25.7471 56.6128 13.802 54.7632 6.23889Z" fill="#FF0000"/>
<path d="M22.4046 28.458L36.9139 19.9206L22.4046 11.3833V28.458Z" fill="white"/>
</g>
<defs>
<clipPath id="clip0_181_236">
<rect width="56" height="40" fill="white"/>
</clipPath>
</defs>
</svg>
