<svg width="187" height="40" viewBox="0 0 187 40" fill="none" xmlns="http://www.w3.org/2000/svg">
<path d="M27.2876 11.3002C28.8252 11.2906 30.2095 12.0158 31.3087 13.0592C32.2691 14.0834 32.6054 15.4568 32.9248 16.786C32.9505 16.8913 32.9762 16.9966 33.0019 17.1019C33.0696 17.3793 33.1368 17.6569 33.2038 17.9345C33.2735 18.2226 33.3436 18.5106 33.4137 18.7986C33.5101 19.1954 33.6065 19.5923 33.7025 19.9892C33.8353 20.5374 33.969 21.0853 34.1042 21.6329C34.3418 22.5973 34.574 23.5618 34.7703 24.5358C34.7847 24.6074 34.7991 24.6789 34.814 24.7527C35.0588 26.0201 35.1721 27.5071 34.418 28.6331C34.2723 28.8207 34.1209 28.9988 33.9618 29.1749C33.8966 29.2482 33.8966 29.2482 33.83 29.3229C33.1679 30.0279 32.2669 30.3828 31.3064 30.4455C29.9188 30.4645 28.8574 29.9748 27.852 29.0275C27.3951 28.5531 27.0523 28.004 26.6928 27.4541C26.0533 26.4768 25.559 25.8478 24.3743 25.5908C24.0134 25.5426 23.657 25.5444 23.2933 25.5441C23.1704 25.5435 23.1704 25.5435 23.045 25.5429C22.7745 25.5419 22.504 25.5414 22.2335 25.541C22.0449 25.5405 21.8564 25.5401 21.6678 25.5397C21.3229 25.539 20.978 25.5385 20.6331 25.5383C20.1274 25.538 19.6218 25.5367 19.116 25.5345C18.6764 25.5327 18.2367 25.5322 17.797 25.5321C17.6108 25.5318 17.4246 25.5312 17.2384 25.5303C16.9772 25.529 16.7161 25.5292 16.4549 25.5296C16.3788 25.5289 16.3026 25.5283 16.2242 25.5276C15.4867 25.5318 14.5968 25.6652 14.0526 26.212C13.6932 26.6434 13.3999 27.1211 13.099 27.5943C12.239 28.9429 11.2737 29.9513 9.6893 30.3751C8.48899 30.6146 7.44552 30.3134 6.44308 29.6478C6.40471 29.6136 6.36634 29.5794 6.3268 29.5442C6.28545 29.5027 6.25422 29.4713 6.22629 29.4432C6.17391 29.3906 6.14459 29.3578 6.10631 29.3227C6.05968 29.2758 6.00828 29.2241 6.00494 29.2208C6.00161 29.2174 5.98756 29.2033 5.95932 29.1749C5.24027 28.3225 4.87186 27.263 4.93035 26.1468C5.05166 24.7895 5.35068 23.4737 5.6723 22.1535C5.80204 21.6175 5.92388 21.0798 6.04487 20.5418C6.06536 20.4507 6.08586 20.3597 6.10697 20.2659C6.18957 19.8987 6.27209 19.5314 6.35416 19.1641C6.56891 18.2036 6.7903 17.2453 7.03163 16.2913C7.05126 16.2122 7.07088 16.1331 7.09111 16.0517C7.50805 14.4304 8.24027 13.0033 9.70768 12.114C10.6504 11.6101 11.4982 11.3651 12.5658 11.3638C12.628 11.3634 12.6903 11.363 12.7545 11.3627C12.9613 11.3615 13.1681 11.3609 13.375 11.3603C13.524 11.3596 13.673 11.3588 13.8221 11.3581C14.2255 11.3561 14.629 11.3545 15.0324 11.353C15.4552 11.3514 15.878 11.3494 16.3008 11.3474C17.1015 11.3437 17.9023 11.3404 18.703 11.3372C19.6124 11.3336 20.5218 11.3295 21.4312 11.3254C22.7719 11.3194 24.1126 11.3136 25.4534 11.3081C25.5983 11.3075 25.7432 11.3069 25.8882 11.3063C26.0863 11.3055 26.2845 11.3047 26.4827 11.3039C26.5397 11.3037 26.5968 11.3034 26.6555 11.3032C26.7616 11.3028 26.8676 11.3024 26.9736 11.3021C27.0783 11.3018 27.183 11.3011 27.2876 11.3002Z" fill="black"/>
<path d="M19.6605 0.000154251C19.7281 0.000337969 19.7958 0.000521687 19.8654 0.000710972C22.3594 0.011151 24.7191 0.451043 27.0516 1.35266C27.1079 1.37396 27.1641 1.39526 27.2221 1.41721C29.3279 2.21945 31.2597 3.46267 32.9785 4.91394C33.1352 5.06033 33.1352 5.06033 33.2989 5.0455C33.3937 4.93858 33.4832 4.82682 33.5699 4.71314C33.7667 4.4603 33.9641 4.20935 34.1717 3.96534C34.2124 3.91717 34.2531 3.86899 34.2951 3.81936C34.4013 3.71607 34.4013 3.71607 34.5483 3.71607C34.772 4.41152 34.9956 5.10701 35.219 5.80253C35.2356 5.85427 35.2522 5.906 35.2694 5.95931C35.7599 7.48624 36.248 9.0139 36.73 10.5436C36.7494 10.605 36.7688 10.6664 36.7887 10.7297C36.8255 10.8462 36.8622 10.9626 36.8988 11.0791C37.0235 11.4742 37.1549 11.8666 37.2924 12.2575C37.3412 12.4312 37.3412 12.4312 37.3412 12.7266C36.7817 12.6131 36.2461 12.4483 35.703 12.2725C35.6079 12.242 35.5128 12.2115 35.4177 12.181C35.2165 12.1165 35.0154 12.0518 34.8143 11.987C34.2909 11.8183 33.7672 11.6506 33.2435 11.4829C33.1917 11.4663 33.1399 11.4497 33.0865 11.4326C32.0793 11.1099 31.0698 10.7953 30.0578 10.4881C29.416 10.2926 28.7834 10.0793 28.1541 9.84619C29.725 8.26138 29.725 8.26138 30.2855 8.07363C30.2855 8.00051 30.2855 7.92739 30.2855 7.85206C30.2421 7.8315 30.1987 7.81094 30.1539 7.78976C30.0025 7.71012 29.8784 7.62523 29.7443 7.51941C29.6747 7.46525 29.6747 7.46525 29.6036 7.41C29.5543 7.37156 29.5049 7.33312 29.454 7.29351C26.1979 4.80514 21.9138 3.63927 17.8553 4.17768C14.4504 4.66702 11.4659 6.13894 8.97126 8.51677C8.90982 8.57475 8.90982 8.57475 8.84713 8.6339C8.14435 9.30082 7.55054 10.0182 6.98683 10.8063C6.95506 10.8497 6.92329 10.8931 6.89055 10.9378C5.55517 12.7708 4.62319 14.9868 4.26743 17.2319C4.25456 17.3097 4.24169 17.3875 4.22842 17.4677C4.10408 18.319 4.09799 19.1644 4.10128 20.0237C4.10206 20.2693 4.10128 20.5149 4.10034 20.7606C4.09992 21.4944 4.10446 22.2096 4.23368 22.9337C4.36406 23.7321 4.21188 24.5007 4.07206 25.2852C4.02102 25.5794 3.98866 25.8704 3.97344 26.1685C3.96871 26.2553 3.96397 26.342 3.95909 26.4314C3.9049 27.8922 4.34148 29.2151 5.31161 30.3227C5.664 30.6719 6.04928 30.9383 6.47235 31.1908C6.54123 31.2334 6.61011 31.2759 6.68107 31.3198C7.15343 31.5753 7.56579 31.6598 8.09425 31.7242C9.0403 31.8401 9.55057 32.0461 10.2367 32.6985C12.1993 34.4535 15.1163 35.341 17.6439 35.7699C17.7302 35.7854 17.8164 35.8008 17.9052 35.8167C19.3397 36.0303 20.8429 35.9927 22.2743 35.7699C22.338 35.7608 22.4018 35.7517 22.4674 35.7423C25.0814 35.3646 28.2317 34.2703 30.1577 32.3549C30.6631 31.8701 31.1686 31.8323 31.8352 31.754C33.1201 31.6019 34.271 30.9631 35.0812 29.9491C35.635 29.1552 36.058 28.1796 36.0918 27.2025C36.0956 27.1094 36.0994 27.0163 36.1033 26.9204C36.1285 25.9721 36.0181 25.0402 35.8282 24.1115C35.7483 23.6949 35.7923 23.2916 35.8712 22.8781C35.9498 22.4176 35.9638 21.9738 35.9591 21.5075C35.9589 21.4268 35.9587 21.3461 35.9585 21.2629C35.9577 21.0086 35.9558 20.7543 35.954 20.5C35.9532 20.3262 35.9526 20.1523 35.952 19.9784C35.9503 19.5553 35.9479 19.1321 35.9448 18.709C36.305 18.5197 36.6602 18.3583 37.0467 18.2284C37.093 18.2127 37.1394 18.1971 37.1872 18.181C37.2843 18.1484 37.3815 18.116 37.4788 18.0839C37.6254 18.0353 37.7717 17.9857 37.918 17.9361C39.1743 17.5142 39.1743 17.5142 39.8401 17.5273C40.0956 19.6706 40.0436 21.7533 39.6931 23.879C39.6767 23.9808 39.6767 23.9808 39.6598 24.0847C39.1867 26.8979 37.9291 29.5366 36.3123 31.8555C36.2801 31.9017 36.248 31.9479 36.2149 31.9955C35.858 32.5033 35.4622 32.9643 35.0393 33.4163C34.8622 33.6067 34.6912 33.801 34.5208 33.9974C33.4697 35.1674 32.1971 36.1153 30.8735 36.9516C30.8258 36.9818 30.7781 37.0119 30.729 37.043C28.667 38.3326 26.4003 39.2 24.0198 39.6705C23.9119 39.6921 23.9119 39.6921 23.8018 39.7141C22.5938 39.9394 21.3839 40.0045 20.1575 39.999C19.9447 39.9982 19.7319 39.999 19.5191 40C18.6868 40.0006 17.8795 39.9525 17.056 39.8321C16.9823 39.8221 16.9087 39.8121 16.8328 39.8018C14.7429 39.5076 12.6642 38.8321 10.7996 37.8373C10.6614 37.7639 10.5223 37.6926 10.3829 37.6215C8.98538 36.902 7.69379 35.9575 6.54585 34.8836C6.45118 34.8018 6.35626 34.7202 6.26105 34.639C5.5789 34.0394 4.97159 33.3857 4.41443 32.6679C4.35645 32.5953 4.29846 32.5227 4.23872 32.4478C1.1908 28.596 -0.0871004 23.7892 0.00458877 18.9306C0.0056191 18.8696 0.00664943 18.8087 0.00771097 18.7459C0.0875757 15.1923 1.47023 11.3831 3.53246 8.51677C3.58665 8.4407 3.64085 8.36463 3.69668 8.28625C4.10618 7.72518 4.55052 7.19687 5.00241 6.67035C5.04599 6.61817 5.08957 6.566 5.13447 6.51225C5.77721 5.75126 6.49692 5.0662 7.28082 4.45464C7.37215 4.38121 7.46344 4.30773 7.55472 4.23423C8.35347 3.59819 9.19408 3.0505 10.0737 2.53437C10.1259 2.50354 10.1782 2.47272 10.232 2.44096C13.0646 0.791714 16.4019 -0.0140594 19.6605 0.000154251Z" fill="#E62224"/>
<path d="M13.3143 14.4567C13.388 14.4545 13.4617 14.4524 13.5377 14.4502C14.0846 14.4454 14.0846 14.4454 14.372 14.6197C14.6131 14.8941 14.5918 15.1201 14.5893 15.4705C14.5892 15.5244 14.5891 15.5782 14.589 15.6338C14.5886 15.8061 14.5877 15.9784 14.5867 16.1508C14.5864 16.2675 14.586 16.3842 14.5857 16.501C14.5849 16.7874 14.5836 17.0738 14.5821 17.3602C14.6515 17.3578 14.7208 17.3555 14.7922 17.3531C15.0504 17.3456 15.3085 17.34 15.5668 17.3358C15.6784 17.3336 15.7899 17.3306 15.9015 17.3267C16.0622 17.3213 16.2228 17.3188 16.3837 17.3169C16.5286 17.3134 16.5286 17.3134 16.6764 17.3098C16.9364 17.3606 16.9831 17.3761 17.1495 17.5613C17.2981 17.7978 17.3475 17.9002 17.3452 18.1729C17.345 18.2398 17.3448 18.3066 17.3446 18.3755C17.3425 18.4441 17.3404 18.5127 17.3383 18.5834C17.3386 18.6867 17.3386 18.6867 17.3389 18.7921C17.3337 19.1578 17.324 19.4309 17.081 19.7236C16.8636 19.8328 16.6434 19.8064 16.4052 19.8046C16.3532 19.8045 16.3012 19.8044 16.2477 19.8043C16.0814 19.8039 15.9152 19.803 15.7489 19.802C15.6363 19.8017 15.5236 19.8013 15.411 19.801C15.1347 19.8002 14.8584 19.7989 14.5821 19.7974C14.5825 19.8723 14.5829 19.9473 14.5833 20.0244C14.5846 20.3023 14.5855 20.5802 14.5862 20.8581C14.5865 20.9784 14.587 21.0987 14.5877 21.219C14.5886 21.3919 14.589 21.5647 14.5893 21.7376C14.5897 21.7914 14.5901 21.8452 14.5905 21.9006C14.5905 22.131 14.5817 22.3098 14.5086 22.5301C14.1114 22.8178 13.8062 22.8721 13.3235 22.8625C13.2658 22.8636 13.2081 22.8648 13.1487 22.866C12.8572 22.864 12.7046 22.8462 12.4513 22.6894C12.1863 22.4034 12.2204 22.1061 12.223 21.7376C12.2231 21.6822 12.2233 21.6268 12.2234 21.5697C12.2238 21.3928 12.2247 21.216 12.2256 21.0391C12.226 20.9192 12.2263 20.7992 12.2266 20.6792C12.2274 20.3853 12.2287 20.0914 12.2302 19.7974C12.1512 19.7986 12.0722 19.7998 11.9908 19.8009C11.6979 19.805 11.4049 19.8075 11.1119 19.8096C10.9851 19.8107 10.8582 19.8122 10.7314 19.8141C10.5491 19.8168 10.3669 19.8181 10.1846 19.8191C10.0995 19.8208 10.0995 19.8208 10.0127 19.8225C9.62107 19.8227 9.62107 19.8227 9.44115 19.6991C9.22779 19.359 9.27404 18.9751 9.27196 18.588C9.27044 18.5181 9.26892 18.4483 9.26736 18.3763C9.26367 17.716 9.26367 17.716 9.51082 17.434C9.77779 17.3446 10.0217 17.351 10.2995 17.3529C10.3822 17.3531 10.3822 17.3531 10.4666 17.3533C10.6426 17.3537 10.8186 17.3546 10.9945 17.3555C11.1139 17.3559 11.2333 17.3562 11.3527 17.3566C11.6452 17.3574 11.9377 17.3586 12.2302 17.3602C12.2291 17.2883 12.2279 17.2164 12.2267 17.1423C12.2227 16.8746 12.2202 16.6069 12.2181 16.3391C12.217 16.2234 12.2155 16.1077 12.2136 15.9921C12.2109 15.8254 12.2097 15.6588 12.2087 15.4921C12.2076 15.4407 12.2064 15.3893 12.2052 15.3363C12.2051 15.0118 12.2581 14.8145 12.4507 14.5536C12.6284 14.3751 13.0759 14.4589 13.3143 14.4567Z" fill="white"/>
<path d="M29.5643 17.3663C29.6399 17.3646 29.6399 17.3646 29.717 17.3628C30.0919 17.3657 30.3067 17.4608 30.5932 17.6986C30.9024 18.0642 30.9326 18.4972 30.9156 18.9608C30.862 19.3667 30.7332 19.6576 30.4095 19.9097C30.0988 20.0424 29.8333 20.0738 29.4954 20.0759C29.4204 20.077 29.3455 20.078 29.2683 20.0791C28.945 20.0539 28.7429 19.9622 28.4894 19.762C28.2257 19.4343 28.083 19.1164 28.1035 18.6888C28.1848 18.2045 28.3417 17.8557 28.7294 17.5411C29.0167 17.3806 29.2442 17.359 29.5643 17.3663Z" fill="white"/>
<path d="M27.3595 14.5227C27.6702 14.6468 27.8004 14.8281 27.9549 15.1173C28.144 15.5825 28.1336 16.0486 27.9679 16.5203C27.7685 16.9261 27.4742 17.0829 27.0655 17.2369C26.6144 17.2936 26.2899 17.2606 25.8896 17.0338C25.5988 16.7561 25.3915 16.513 25.3601 16.0979C25.3532 15.637 25.3557 15.2909 25.5956 14.892C26.0959 14.426 26.7071 14.4352 27.3595 14.5227Z" fill="white"/>
<path d="M27.6051 20.4108C27.8655 20.6126 27.9925 20.8627 28.0943 21.1698C28.1317 21.6293 28.1497 22.0373 27.8738 22.4254C27.518 22.7753 27.286 22.8807 26.7898 22.887C26.7007 22.8889 26.6116 22.8908 26.5199 22.8928C26.1273 22.8566 25.8245 22.7099 25.5679 22.4069C25.3094 22.0349 25.309 21.6551 25.327 21.2128C25.3995 20.8128 25.5655 20.5932 25.8894 20.3574C26.4023 20.0763 27.1047 20.1212 27.6051 20.4108Z" fill="white"/>
<path d="M23.8362 17.3665C23.8865 17.3651 23.9368 17.3638 23.9887 17.3623C24.3614 17.367 24.5738 17.4649 24.8605 17.6989C25.1861 18.1502 25.209 18.6328 25.1545 19.176C25.0465 19.5202 24.8928 19.8142 24.5665 19.9884C24.0094 20.1567 23.3937 20.1093 22.8761 19.8407C22.5385 19.5014 22.4962 19.2191 22.4902 18.7513C22.4982 18.0431 22.4982 18.0431 22.7291 17.6989C23.067 17.3909 23.3909 17.3746 23.8362 17.3665Z" fill="white"/>
<path d="M60.384 14.88V16.368H57.424V26H55.6V16.368H52.624V14.88H60.384ZM71.1113 14.88V26H69.2873V21.136H64.0553V26H62.2313V14.88H64.0553V19.648H69.2873V14.88H71.1113ZM75.3365 16.352V19.616H79.1765V21.104H75.3365V24.512H79.6565V26H73.5125V14.864H79.6565V16.352H75.3365ZM87.8834 24.528H91.6434V26H86.0594V14.88H87.8834V24.528ZM99.8728 23.728H95.2168L94.4168 26H92.5128L96.4968 14.864H98.6088L102.593 26H100.673L99.8728 23.728ZM99.3608 22.24L97.5528 17.072L95.7288 22.24H99.3608ZM107.989 26.112C107.242 26.112 106.57 25.984 105.973 25.728C105.376 25.4613 104.906 25.088 104.565 24.608C104.224 24.128 104.053 23.568 104.053 22.928H106.005C106.048 23.408 106.234 23.8027 106.565 24.112C106.906 24.4213 107.381 24.576 107.989 24.576C108.618 24.576 109.109 24.4267 109.461 24.128C109.813 23.8187 109.989 23.424 109.989 22.944C109.989 22.5707 109.877 22.2667 109.653 22.032C109.44 21.7973 109.168 21.616 108.837 21.488C108.517 21.36 108.069 21.2213 107.493 21.072C106.768 20.88 106.176 20.688 105.717 20.496C105.269 20.2933 104.885 19.984 104.565 19.568C104.245 19.152 104.085 18.5973 104.085 17.904C104.085 17.264 104.245 16.704 104.565 16.224C104.885 15.744 105.333 15.376 105.909 15.12C106.485 14.864 107.152 14.736 107.909 14.736C108.986 14.736 109.866 15.008 110.549 15.552C111.242 16.0853 111.626 16.8213 111.701 17.76H109.685C109.653 17.3547 109.461 17.008 109.109 16.72C108.757 16.432 108.293 16.288 107.717 16.288C107.194 16.288 106.768 16.4213 106.437 16.688C106.106 16.9547 105.941 17.3387 105.941 17.84C105.941 18.1813 106.042 18.464 106.245 18.688C106.458 18.9013 106.725 19.072 107.045 19.2C107.365 19.328 107.802 19.4667 108.357 19.616C109.093 19.8187 109.69 20.0213 110.149 20.224C110.618 20.4267 111.013 20.7413 111.333 21.168C111.664 21.584 111.829 22.144 111.829 22.848C111.829 23.4133 111.674 23.9467 111.365 24.448C111.066 24.9493 110.624 25.3547 110.037 25.664C109.461 25.9627 108.778 26.112 107.989 26.112ZM121.165 14.88V16.368H118.205V26H116.381V16.368H113.405V14.88H121.165ZM128.977 14.88V21.968C128.977 22.8107 129.195 23.4453 129.633 23.872C130.081 24.2987 130.699 24.512 131.489 24.512C132.289 24.512 132.907 24.2987 133.345 23.872C133.793 23.4453 134.017 22.8107 134.017 21.968V14.88H135.841V21.936C135.841 22.8427 135.643 23.6107 135.249 24.24C134.854 24.8693 134.326 25.3387 133.665 25.648C133.003 25.9573 132.273 26.112 131.473 26.112C130.673 26.112 129.942 25.9573 129.281 25.648C128.63 25.3387 128.113 24.8693 127.729 24.24C127.345 23.6107 127.153 22.8427 127.153 21.936V14.88H128.977ZM145.992 18.192C145.992 18.7573 145.858 19.2907 145.592 19.792C145.325 20.2933 144.898 20.704 144.312 21.024C143.725 21.3333 142.973 21.488 142.056 21.488H140.04V26H138.216V14.88H142.056C142.909 14.88 143.629 15.0293 144.216 15.328C144.813 15.616 145.256 16.0107 145.544 16.512C145.842 17.0133 145.992 17.5733 145.992 18.192ZM142.056 20C142.749 20 143.266 19.8453 143.608 19.536C143.949 19.216 144.12 18.768 144.12 18.192C144.12 16.976 143.432 16.368 142.056 16.368H140.04V20H142.056ZM151.363 14.88C152.547 14.88 153.582 15.1093 154.467 15.568C155.363 16.016 156.051 16.6667 156.531 17.52C157.022 18.3627 157.267 19.3493 157.267 20.48C157.267 21.6107 157.022 22.592 156.531 23.424C156.051 24.256 155.363 24.896 154.467 25.344C153.582 25.7813 152.547 26 151.363 26H147.731V14.88H151.363ZM151.363 24.512C152.665 24.512 153.662 24.16 154.355 23.456C155.049 22.752 155.395 21.76 155.395 20.48C155.395 19.1893 155.049 18.1813 154.355 17.456C153.662 16.7307 152.665 16.368 151.363 16.368H149.555V24.512H151.363ZM165.779 23.728H161.123L160.323 26H158.419L162.403 14.864H164.515L168.499 26H166.579L165.779 23.728ZM165.267 22.24L163.459 17.072L161.635 22.24H165.267ZM177.415 14.88V16.368H174.455V26H172.631V16.368H169.655V14.88H177.415ZM181.087 16.352V19.616H184.927V21.104H181.087V24.512H185.407V26H179.263V14.864H185.407V16.352H181.087Z" fill="#121212"/>
</svg>
