<svg width="140" height="140" viewBox="0 0 140 140" fill="none" xmlns="http://www.w3.org/2000/svg">
<path d="M95.5068 39.5506C100.888 39.5171 105.733 42.0551 109.581 45.7069C112.942 49.2917 114.119 54.0989 115.237 58.751C115.327 59.1195 115.417 59.488 115.507 59.8564C115.744 60.8275 115.979 61.7991 116.213 62.7708C116.457 63.7791 116.703 64.7869 116.948 65.7949C117.286 67.1838 117.623 68.5728 117.959 69.9621C118.423 71.8807 118.892 73.7984 119.365 75.715C120.196 79.0904 121.009 82.4663 121.696 85.8752C121.746 86.1257 121.797 86.3762 121.849 86.6343C122.706 91.0703 123.103 96.2748 120.463 100.216C119.953 100.872 119.423 101.496 118.866 102.112C118.638 102.369 118.638 102.369 118.405 102.63C116.088 105.098 112.934 106.34 109.572 106.559C104.716 106.626 101.001 104.912 97.4821 101.596C95.8828 99.9357 94.6831 98.014 93.4248 96.0893C91.1866 92.6686 89.4565 90.4672 85.31 89.5677C84.0468 89.3992 82.7995 89.4055 81.5265 89.4041C81.0964 89.4022 81.0964 89.4022 80.6576 89.4002C79.7109 89.3964 78.7641 89.3947 77.8173 89.3932C77.1573 89.3918 76.4972 89.3903 75.8372 89.3888C74.6301 89.3864 73.4231 89.3848 72.216 89.384C70.4461 89.3828 68.6761 89.3783 66.9062 89.3708C65.3673 89.3645 63.8285 89.3626 62.2896 89.3621C61.6378 89.3613 60.9861 89.3593 60.3344 89.3559C59.4202 89.3514 58.5062 89.3519 57.5921 89.3536C57.3257 89.3512 57.0592 89.3488 56.7847 89.3464C54.2035 89.3611 51.0887 89.8282 49.1842 91.7419C47.9262 93.2518 46.8996 94.9237 45.8464 96.5798C42.8365 101.3 39.458 104.83 33.9126 106.313C29.7115 107.151 26.0593 106.097 22.5508 103.767C22.4165 103.648 22.2822 103.528 22.1438 103.405C21.9991 103.259 21.8898 103.149 21.792 103.051C21.6087 102.867 21.5061 102.752 21.3721 102.629C21.2089 102.465 21.029 102.284 21.0173 102.273C21.0056 102.261 20.9565 102.212 20.8576 102.112C18.3409 99.1285 17.0515 95.4206 17.2562 91.5137C17.6808 86.7633 18.7274 82.1579 19.8531 77.537C20.3071 75.6611 20.7336 73.7792 21.157 71.8961C21.2288 71.5775 21.3005 71.2589 21.3744 70.9306C21.6635 69.6453 21.9523 68.3599 22.2396 67.0741C22.9912 63.7127 23.7661 60.3585 24.6107 57.0193C24.6794 56.7426 24.7481 56.4659 24.8189 56.1808C26.2782 50.5063 28.841 45.5113 33.9769 42.399C37.2765 40.6353 40.2438 39.7778 43.9802 39.7731C44.1982 39.7718 44.4161 39.7705 44.6407 39.7692C45.3646 39.7653 46.0885 39.7631 46.8123 39.7609C47.334 39.7584 47.8556 39.7558 48.3772 39.7531C49.7893 39.7462 51.2014 39.7407 52.6136 39.7356C54.0933 39.7299 55.5731 39.7228 57.0528 39.7159C59.8554 39.703 62.658 39.6914 65.4606 39.6802C68.6435 39.6675 71.8264 39.6533 75.0093 39.639C79.7018 39.6179 84.3943 39.5974 89.0867 39.5783C89.594 39.5762 90.1013 39.5741 90.6086 39.572C91.3022 39.5691 91.9958 39.5663 92.6895 39.5636C92.8891 39.5627 93.0887 39.5619 93.2944 39.561C93.6655 39.5596 94.0366 39.5583 94.4077 39.5574C94.7741 39.5561 95.1404 39.5538 95.5068 39.5506Z" fill="black"/>
<path d="M68.8119 0.000646691C69.0485 0.0012897 69.2852 0.00193272 69.529 0.00259521C78.2579 0.0391354 86.5168 1.57876 94.6806 4.73441C94.8776 4.80897 95.0745 4.88352 95.2774 4.96034C102.648 7.76817 109.409 12.1195 115.425 17.1989C115.973 17.7113 115.973 17.7113 116.546 17.6593C116.878 17.2851 117.191 16.894 117.495 16.4961C118.183 15.6112 118.874 14.7328 119.601 13.8788C119.743 13.7102 119.886 13.5416 120.033 13.3679C120.405 13.0064 120.405 13.0064 120.919 13.0064C121.702 15.4404 122.484 17.8746 123.266 20.309C123.325 20.49 123.383 20.6711 123.443 20.8577C125.16 26.2019 126.868 31.5488 128.555 36.9026C128.623 37.1176 128.691 37.3326 128.761 37.5541C128.889 37.9617 129.018 38.3693 129.146 38.7771C129.582 40.1599 130.042 41.5334 130.523 42.9012C130.694 43.5092 130.694 43.5092 130.694 44.5432C128.736 44.146 126.861 43.5691 124.961 42.9539C124.628 42.847 124.295 42.7402 123.962 42.6335C123.258 42.4077 122.554 42.1814 121.85 41.9545C120.018 41.3641 118.185 40.7771 116.352 40.1901C116.171 40.1321 115.99 40.074 115.803 40.0142C112.278 38.8849 108.744 37.7838 105.202 36.7086C102.956 36.0241 100.742 35.2775 98.5392 34.4618C104.037 28.9149 104.037 28.9149 105.999 28.2578C105.999 28.0019 105.999 27.746 105.999 27.4823C105.847 27.4104 105.695 27.3384 105.539 27.2643C105.009 26.9855 104.574 26.6884 104.105 26.3181C103.861 26.1285 103.861 26.1285 103.613 25.9351C103.44 25.8006 103.267 25.666 103.089 25.5274C91.6927 16.8181 76.6981 12.7376 62.4934 14.622C50.5763 16.3347 40.1306 21.4864 31.3994 29.8088C31.1844 30.0117 31.1844 30.0117 30.9649 30.2188C28.5052 32.553 26.4269 35.0638 24.4539 37.8223C24.3427 37.9742 24.2315 38.1261 24.1169 38.2826C19.4431 44.698 16.1812 52.4538 14.936 60.3117C14.891 60.5841 14.8459 60.8565 14.7995 61.1371C14.3643 64.1167 14.343 67.0754 14.3545 70.083C14.3572 70.9427 14.3545 71.8023 14.3512 72.662C14.3497 75.2306 14.3656 77.7336 14.8179 80.2682C15.2742 83.0624 14.7416 85.7526 14.2522 88.4983C14.0736 89.528 13.9603 90.5465 13.9071 91.59C13.8905 91.8936 13.8739 92.1971 13.8568 92.5099C13.6671 97.6229 15.1952 102.253 18.5906 106.13C19.824 107.352 21.1725 108.284 22.6532 109.168C22.8943 109.317 23.1354 109.466 23.3838 109.619C25.037 110.514 26.4803 110.81 28.3299 111.035C31.6411 111.44 33.427 112.161 35.8285 114.445C42.6975 120.587 52.9069 123.694 61.7538 125.195C62.0556 125.249 62.3573 125.303 62.6682 125.358C67.6889 126.106 72.95 125.975 77.96 125.195C78.1831 125.163 78.4061 125.131 78.636 125.098C87.7848 123.776 98.8109 119.946 105.552 113.242C107.321 111.546 109.09 111.413 111.423 111.139C115.92 110.607 119.948 108.371 122.784 104.822C124.722 102.043 126.203 98.6286 126.321 95.209C126.334 94.8831 126.348 94.5572 126.361 94.2215C126.45 90.9026 126.063 87.6408 125.399 84.3904C125.119 82.9321 125.273 81.5209 125.549 80.0734C125.824 78.4617 125.873 76.9083 125.857 75.2763C125.856 74.9938 125.856 74.7113 125.855 74.4203C125.852 73.5302 125.845 72.6403 125.839 71.7502C125.836 71.1417 125.834 70.5331 125.832 69.9246C125.826 68.4436 125.818 66.9626 125.807 65.4816C127.068 64.8189 128.311 64.2543 129.663 63.7994C129.826 63.7447 129.988 63.69 130.155 63.6337C130.495 63.5195 130.835 63.4062 131.176 63.2936C131.689 63.1235 132.201 62.9502 132.713 62.7765C137.11 61.3 137.11 61.3 139.44 61.3457C140.335 68.8472 140.153 76.1365 138.926 83.5766C138.868 83.9329 138.868 83.9329 138.809 84.2965C137.153 94.1428 132.752 103.378 127.093 111.494C126.98 111.656 126.868 111.818 126.752 111.984C125.503 113.762 124.118 115.375 122.637 116.957C122.018 117.624 121.419 118.304 120.823 118.991C117.144 123.086 112.69 126.404 108.057 129.331C107.89 129.436 107.723 129.542 107.551 129.651C100.335 134.164 92.401 137.2 84.0694 138.847C83.6917 138.922 83.6917 138.922 83.3063 138.999C79.0783 139.788 74.8437 140.016 70.5512 139.997C69.8064 139.994 69.0618 139.997 68.317 140C65.4038 140.002 62.5781 139.834 59.6959 139.412C59.4381 139.377 59.1803 139.342 58.9147 139.306C51.6003 138.277 44.3246 135.912 37.7987 132.431C37.315 132.174 36.8281 131.924 36.3403 131.676C31.4488 129.157 26.9283 125.851 22.9105 122.093C22.5791 121.806 22.2469 121.521 21.9137 121.237C19.5262 119.138 17.4006 116.85 15.4505 114.338C15.2476 114.084 15.0446 113.829 14.8355 113.567C4.16781 100.086 -0.304851 83.2623 0.0160607 66.2571C0.0196668 66.0438 0.023273 65.8305 0.0269884 65.6108C0.306515 53.1732 5.1458 39.8411 12.3636 29.8088C12.5533 29.5426 12.743 29.2763 12.9384 29.002C14.3716 27.0383 15.9268 25.1892 17.5084 23.3463C17.661 23.1637 17.8135 22.9811 17.9707 22.793C20.2202 20.1295 22.7392 17.7318 25.4829 15.5914C25.8025 15.3343 26.1221 15.0772 26.4415 14.8199C29.2371 12.5938 32.1793 10.6768 35.258 8.87039C35.4408 8.76251 35.6236 8.65463 35.812 8.54348C45.726 2.77111 57.4067 -0.049101 68.8119 0.000646691Z" fill="#E62224"/>
<path d="M46.6001 50.5982C46.8581 50.5907 47.116 50.5832 47.3818 50.5755C49.2959 50.5589 49.2959 50.5589 50.3019 51.1687C51.1459 52.1291 51.0715 52.9202 51.0626 54.1465C51.0622 54.3351 51.0619 54.5237 51.0615 54.718C51.0601 55.3212 51.0568 55.9243 51.0536 56.5275C51.0523 56.9361 51.0511 57.3447 51.05 57.7533C51.0472 58.7557 51.0428 59.7581 51.0375 60.7604C51.2801 60.7523 51.5227 60.7442 51.7727 60.7358C52.6765 60.7093 53.5798 60.6899 54.4838 60.6752C54.8743 60.6674 55.2648 60.6569 55.6552 60.6434C56.2179 60.6245 56.78 60.6158 57.3429 60.6089C57.8501 60.5968 57.8501 60.5968 58.3675 60.5843C59.2773 60.762 59.4409 60.8163 60.0231 61.4645C60.5432 62.2921 60.7164 62.6506 60.7081 63.6049C60.7075 63.839 60.7068 64.0731 60.7061 64.3143C60.6988 64.5544 60.6915 64.7944 60.684 65.0418C60.685 65.4034 60.685 65.4034 60.686 65.7724C60.6679 67.0523 60.6341 68.0081 59.7837 69.0324C59.0227 69.4147 58.2519 69.3224 57.4183 69.3161C57.2363 69.3158 57.0543 69.3154 56.8668 69.315C56.2849 69.3136 55.703 69.3103 55.1212 69.307C54.7269 69.3057 54.3327 69.3046 53.9385 69.3035C52.9715 69.3006 52.0045 69.2962 51.0375 69.2909C51.0388 69.5531 51.0402 69.8152 51.0416 70.0854C51.0462 71.058 51.0492 72.0307 51.0516 73.0033C51.0529 73.4243 51.0547 73.8453 51.0569 74.2663C51.06 74.8714 51.0615 75.4764 51.0626 76.0815C51.0639 76.2698 51.0653 76.458 51.0666 76.652C51.0667 77.4584 51.0361 78.0841 50.7802 78.8553C49.3899 79.8622 48.3215 80.0524 46.6322 80.0186C46.4303 80.0226 46.2283 80.0266 46.0203 80.0307C45.0001 80.0238 44.4662 79.9617 43.5795 79.4127C42.6521 78.4119 42.7716 77.3714 42.7807 76.0815C42.781 75.8875 42.7814 75.6936 42.7818 75.4937C42.7832 74.8747 42.7864 74.2558 42.7897 73.6369C42.791 73.217 42.7922 72.7971 42.7932 72.3772C42.7961 71.3484 42.8005 70.3197 42.8058 69.2909C42.5293 69.2949 42.2528 69.299 41.9679 69.3032C40.9425 69.3172 39.9171 69.3261 38.8916 69.3335C38.4477 69.3374 38.0038 69.3427 37.5599 69.3494C36.922 69.3588 36.2842 69.3632 35.6462 69.3666C35.3484 69.3726 35.3484 69.3726 35.0445 69.3787C33.6737 69.3792 33.6737 69.3792 33.044 68.9469C32.2973 67.7562 32.4591 66.4126 32.4518 65.058C32.4465 64.8134 32.4412 64.5688 32.4358 64.3168C32.4228 62.006 32.4228 62.006 33.2879 61.0189C34.2223 60.7059 35.076 60.7282 36.0482 60.7352C36.3377 60.7357 36.3377 60.7357 36.6332 60.7363C37.2491 60.7377 37.865 60.741 38.4809 60.7443C38.8988 60.7456 39.3166 60.7467 39.7345 60.7478C40.7582 60.7506 41.782 60.7551 42.8058 60.7604C42.8017 60.5088 42.7977 60.2571 42.7935 59.9979C42.7795 59.0609 42.7707 58.1239 42.7634 57.1868C42.7595 56.7819 42.7543 56.377 42.7476 55.9721C42.7382 55.3888 42.7338 54.8056 42.7304 54.2222C42.7264 54.0423 42.7224 53.8624 42.7183 53.677C42.718 52.541 42.9032 51.8505 43.5775 50.9375C44.1994 50.3125 45.7658 50.6061 46.6001 50.5982Z" fill="white"/>
<path d="M103.475 60.7821C103.74 60.7761 103.74 60.7761 104.01 60.77C105.322 60.7801 106.073 61.1129 107.076 61.9454C108.158 63.2247 108.264 64.7403 108.205 66.3631C108.017 67.7836 107.566 68.8017 106.433 69.6842C105.346 70.1486 104.417 70.2583 103.234 70.2658C102.971 70.2695 102.709 70.2731 102.439 70.2769C101.308 70.1888 100.6 69.868 99.7128 69.1672C98.79 68.0202 98.2905 66.9076 98.3623 65.4109C98.6468 63.7159 99.1961 62.4952 100.553 61.3941C101.558 60.8324 102.355 60.7567 103.475 60.7821Z" fill="white"/>
<path d="M95.7583 50.8294C96.8457 51.2639 97.3012 51.8982 97.8423 52.9105C98.5042 54.5386 98.4676 56.1701 97.8875 57.821C97.1899 59.2414 96.1596 59.7902 94.7293 60.3292C93.1506 60.5275 92.0147 60.412 90.6135 59.6184C89.5958 58.6463 88.8704 57.7954 88.7605 56.3427C88.7361 54.7293 88.745 53.5182 89.5845 52.1219C91.3356 50.491 93.4747 50.5233 95.7583 50.8294Z" fill="white"/>
<path d="M96.6179 71.4378C97.5293 72.1441 97.9737 73.0197 98.3302 74.0945C98.4608 75.7028 98.524 77.1306 97.5585 78.489C96.313 79.7138 95.501 80.0825 93.7642 80.1046C93.4525 80.1112 93.1408 80.1179 92.8196 80.1248C91.4454 79.9981 90.3859 79.4847 89.4876 78.4243C88.5829 77.1222 88.5815 75.793 88.6445 74.2449C88.8982 72.8449 89.4792 72.0764 90.613 71.251C92.408 70.2671 94.8665 70.4243 96.6179 71.4378Z" fill="white"/>
<path d="M83.4265 60.7826C83.6027 60.7778 83.7788 60.773 83.9603 60.7681C85.2647 60.7844 86.0084 61.1272 87.0118 61.9459C88.1515 63.5255 88.2316 65.2146 88.0408 67.1159C87.6627 68.3206 87.1248 69.3497 85.9829 69.9594C84.0329 70.5485 81.878 70.3823 80.0663 69.4424C78.8847 68.2549 78.7368 67.2666 78.7158 65.6295C78.7438 63.1508 78.7438 63.1508 79.5519 61.9459C80.7344 60.8681 81.8681 60.811 83.4265 60.7826Z" fill="white"/>
</svg>
