<svg xmlns="http://www.w3.org/2000/svg" width="140" height="140" fill="none"><path fill="#F4F4F3" d="M95.507 39.55c5.381-.033 10.226 2.505 14.073 6.157 3.362 3.585 4.539 8.392 5.657 13.044l.27 1.105q.355 1.457.706 2.915l.735 3.024 1.011 4.167q.696 2.878 1.406 5.753c.831 3.375 1.644 6.751 2.331 10.16l.153.76c.857 4.435 1.254 9.64-1.386 13.581-.51.656-1.04 1.28-1.597 1.896l-.461.518c-2.317 2.468-5.471 3.71-8.833 3.929-4.856.067-8.571-1.647-12.09-4.963-1.6-1.66-2.799-3.582-4.057-5.507-2.238-3.42-3.968-5.622-8.115-6.521-1.263-.169-2.51-.162-3.784-.164l-.868-.004q-1.42-.005-2.84-.007l-1.98-.004q-1.812-.004-3.622-.005-2.655-.002-5.31-.013-2.309-.008-4.616-.009-.978 0-1.956-.006a404 404 0 0 0-2.742-.002l-.807-.008c-2.581.015-5.696.482-7.6 2.396-1.259 1.51-2.285 3.182-3.339 4.838-3.01 4.72-6.388 8.25-11.933 9.733-4.201.838-7.854-.216-11.362-2.546l-.407-.362-.352-.354c-.183-.184-.286-.299-.42-.422l-.355-.356-.16-.161c-2.516-2.983-3.805-6.691-3.6-10.598.424-4.75 1.47-9.356 2.596-13.977.454-1.876.88-3.758 1.304-5.64l.217-.966q.434-1.928.866-3.857a372 372 0 0 1 2.37-10.055q.104-.412.209-.838c1.46-5.675 4.022-10.67 9.158-13.782 3.3-1.764 6.267-2.621 10.003-2.626l.66-.004q1.087-.005 2.172-.008l1.565-.008q2.118-.01 4.237-.017l4.439-.02q4.203-.02 8.408-.036l9.548-.041q7.039-.032 14.078-.06l1.522-.007 2.08-.008.605-.003 1.114-.004q.549 0 1.099-.006"/><path fill="#E62224" d="m68.812 0 .717.003c8.729.036 16.988 1.576 25.152 4.731l.596.226c7.371 2.808 14.132 7.16 20.148 12.239.548.512.548.512 1.121.46.332-.374.645-.765.949-1.163a76 76 0 0 1 2.106-2.617l.432-.511c.372-.362.372-.362.886-.362l2.347 7.303.177.549a3001 3001 0 0 1 5.112 16.045l.206.651.385 1.223q.655 2.073 1.377 4.124c.171.608.171.608.171 1.642-1.958-.397-3.833-.974-5.733-1.59l-.999-.32-2.112-.678q-2.748-.885-5.498-1.765l-.549-.176a725 725 0 0 0-10.601-3.305 119 119 0 0 1-6.663-2.247c5.498-5.547 5.498-5.547 7.46-6.204v-.776l-.46-.218a9 9 0 0 1-1.434-.946l-.492-.383-.524-.408c-11.396-8.709-26.39-12.79-40.596-10.905-11.917 1.713-22.362 6.864-31.094 15.187l-.434.41c-2.46 2.334-4.538 4.845-6.511 7.603l-.337.46c-4.674 6.416-7.936 14.172-9.181 22.03l-.136.825c-.436 2.98-.457 5.938-.446 8.946q.003 1.29-.003 2.579c-.001 2.569.015 5.072.467 7.606.456 2.794-.076 5.485-.566 8.23a26 26 0 0 0-.345 3.092l-.05.92c-.19 5.113 1.338 9.743 4.734 13.62 1.233 1.222 2.581 2.154 4.062 3.038l.73.451c1.654.895 3.097 1.191 4.947 1.416 3.311.405 5.097 1.126 7.499 3.41 6.868 6.142 17.078 9.249 25.925 10.75l.914.163c5.02.748 10.282.617 15.292-.163l.676-.097c9.149-1.322 20.175-5.152 26.916-11.856 1.769-1.696 3.538-1.829 5.871-2.103a17 17 0 0 0 11.361-6.317c1.938-2.779 3.419-6.193 3.537-9.613l.04-.987c.089-3.32-.298-6.581-.962-9.832-.28-1.458-.126-2.87.15-4.317.275-1.611.324-3.165.308-4.797l-.002-.856q-.006-1.335-.016-2.67l-.007-1.825a1316 1316 0 0 0-.025-4.443c1.261-.663 2.504-1.228 3.856-1.683l.492-.165q.51-.172 1.021-.34.77-.256 1.537-.517c4.397-1.477 4.397-1.477 6.727-1.431.895 7.501.713 14.79-.514 22.23l-.117.72c-1.656 9.847-6.057 19.082-11.716 27.198l-.341.49c-1.249 1.778-2.634 3.391-4.115 4.973a81 81 0 0 0-1.814 2.034c-3.679 4.095-8.133 7.413-12.766 10.34l-.506.32c-7.216 4.513-15.15 7.549-23.482 9.196l-.763.152c-4.228.789-8.462 1.017-12.755.998q-1.118-.003-2.234.003c-2.913.002-5.739-.166-8.621-.588l-.781-.106a64.3 64.3 0 0 1-21.116-6.875q-.726-.384-1.459-.755c-4.891-2.519-9.412-5.825-13.43-9.583q-.496-.43-.996-.856a49.6 49.6 0 0 1-6.464-6.899l-.614-.771C4.168 100.086-.305 83.262.015 66.257l.011-.646c.28-12.438 5.119-25.77 12.337-35.802l.574-.807c1.434-1.964 2.989-3.813 4.57-5.656l.463-.553a50.3 50.3 0 0 1 7.512-7.202l.959-.771c2.795-2.226 5.737-4.143 8.816-5.95l.554-.327c9.914-5.772 21.595-8.592 33-8.542"/><path fill="#0B0B0B" d="m46.6 50.598.782-.023c1.914-.016 1.914-.016 2.92.594.844.96.77 1.751.76 2.978v.571l-.008 1.81-.004 1.225q-.005 1.504-.012 3.007l.735-.024q1.355-.04 2.71-.06.587-.014 1.172-.033a79 79 0 0 1 1.688-.034l1.024-.025c.91.178 1.074.232 1.656.88.52.828.693 1.187.685 2.14l-.002.71-.022.728.002.73c-.018 1.28-.052 2.236-.902 3.26-.761.383-1.532.29-2.366.284l-.551-.001-1.746-.008-1.183-.004q-1.45-.004-2.9-.012 0 .391.004.794l.01 2.918q.001.631.005 1.263.005.907.006 1.816 0 .28.004.57c0 .806-.03 1.432-.287 2.203-1.39 1.007-2.459 1.197-4.148 1.164l-.612.012c-1.02-.007-1.554-.07-2.44-.618-.928-1.001-.808-2.042-.8-3.331l.002-.588q.002-.93.008-1.857l.003-1.26q.005-1.543.013-3.086l-.838.012q-1.538.02-3.076.03-.666.007-1.332.016-.957.013-1.914.018l-.602.012c-1.37 0-1.37 0-2-.432-.747-1.19-.585-2.534-.592-3.889l-.016-.741c-.013-2.311-.013-2.311.852-3.298.934-.313 1.788-.29 2.76-.284l.585.001 1.848.008 1.253.004 3.072.012-.012-.762q-.02-1.406-.03-2.811a176 176 0 0 0-.016-1.215q-.014-.874-.018-1.75l-.012-.545c0-1.136.185-1.827.86-2.74.621-.624 2.188-.33 3.022-.339"/><path fill="#0C0C0C" d="m103.475 60.782.535-.012c1.312.01 2.063.343 3.066 1.175 1.082 1.28 1.188 2.795 1.129 4.418-.188 1.42-.639 2.439-1.772 3.321-1.087.465-2.016.574-3.199.582l-.795.01c-1.131-.087-1.839-.408-2.726-1.109-.923-1.147-1.422-2.26-1.35-3.756.284-1.695.833-2.916 2.19-4.017 1.005-.562 1.802-.637 2.922-.612M95.758 50.83c1.088.434 1.543 1.068 2.084 2.08.662 1.629.626 3.26.046 4.911-.698 1.42-1.728 1.97-3.159 2.508-1.578.199-2.714.083-4.115-.71-1.018-.973-1.744-1.824-1.854-3.276-.024-1.614-.015-2.825.825-4.221 1.75-1.631 3.89-1.599 6.173-1.293M96.618 71.438c.911.706 1.356 1.582 1.712 2.656.13 1.609.194 3.037-.772 4.395-1.245 1.225-2.057 1.593-3.794 1.616l-.944.02c-1.375-.127-2.434-.64-3.332-1.7-.905-1.303-.906-2.632-.844-4.18.254-1.4.835-2.169 1.969-2.994 1.795-.984 4.254-.827 6.005.187"/><path fill="#0B0B0B" d="m83.427 60.783.533-.015c1.305.016 2.048.36 3.052 1.178 1.14 1.58 1.22 3.269 1.029 5.17-.378 1.205-.916 2.234-2.058 2.843-1.95.59-4.105.423-5.917-.517-1.181-1.187-1.33-2.175-1.35-3.812.028-2.48.028-2.48.836-3.684 1.182-1.078 2.316-1.135 3.874-1.163"/></svg>