<svg xmlns="http://www.w3.org/2000/svg" width="187" height="40" fill="none"><path fill="#F4F4F3" d="M27.288 11.3c1.537-.01 2.921.716 4.02 1.76.961 1.023 1.297 2.397 1.617 3.726l.077.316.202.832.21.865.288 1.19.402 1.644a70 70 0 0 1 .71 3.12c.245 1.267.358 2.754-.396 3.88a10 10 0 0 1-.456.542l-.132.148c-.662.705-1.563 1.06-2.524 1.122-1.387.02-2.449-.47-3.454-1.418-.457-.474-.8-1.023-1.16-1.573-.639-.977-1.133-1.606-2.318-1.863-.36-.048-.717-.047-1.08-.047l-.249-.001-1.377-.003-1.035-.002q-.759 0-1.517-.003a341 341 0 0 0-1.878-.005h-.783l-.23-.002c-.738.004-1.628.137-2.172.684-.36.431-.653.91-.954 1.382-.86 1.349-1.825 2.357-3.41 2.781-1.2.24-2.243-.062-3.246-.727l-.116-.104-.1-.1c-.053-.053-.082-.086-.12-.121l-.102-.102-.046-.046a4.3 4.3 0 0 1-1.029-3.028c.122-1.357.42-2.673.742-3.993q.193-.805.373-1.612l.062-.276.247-1.102c.215-.96.436-1.919.678-2.873l.06-.24c.416-1.62 1.148-3.048 2.616-3.937.942-.504 1.79-.749 2.858-.75l.809-.004.447-.002 1.21-.005 1.269-.006 2.402-.01q1.365-.005 2.728-.012l5.052-.021h.172l.319-.002q.156 0 .314-.002"/><path fill="#E62224" d="M19.66 0h.205c2.494.011 4.854.451 7.187 1.353l.17.064c2.106.802 4.038 2.046 5.756 3.497.157.146.157.146.32.132q.143-.162.272-.333a22 22 0 0 1 .725-.894c.106-.103.106-.103.253-.103l.671 2.087.05.156a864 864 0 0 1 1.63 5.12q.187.593.393 1.178c.05.174.05.174.05.47a15 15 0 0 1-1.639-.454l-2.617-.84a208 208 0 0 0-3.028-.945 34 34 0 0 1-1.904-.642c1.571-1.585 1.571-1.585 2.131-1.772v-.222l-.131-.062a2.6 2.6 0 0 1-.41-.27l-.14-.11-.15-.116c-3.256-2.489-7.54-3.655-11.599-3.116-3.405.489-6.39 1.961-8.884 4.339l-.124.117a15 15 0 0 0-1.86 2.172l-.096.132a14.8 14.8 0 0 0-2.624 6.294l-.039.236c-.124.851-.13 1.696-.127 2.556v.737c-.001.733.003 1.449.133 2.173.13.798-.022 1.567-.162 2.351a7 7 0 0 0-.099.884l-.014.262c-.054 1.461.382 2.784 1.353 3.892.352.349.737.615 1.16.868l.21.129c.471.255.884.34 1.412.404.946.116 1.457.322 2.143.975 1.962 1.755 4.88 2.642 7.407 3.07l.261.048c1.435.213 2.938.176 4.37-.047l.192-.028c2.614-.377 5.765-1.472 7.69-3.387.506-.485 1.012-.523 1.678-.601a4.86 4.86 0 0 0 3.246-1.805c.554-.794.977-1.77 1.01-2.746q.007-.14.012-.283c.026-.948-.085-1.88-.275-2.809-.08-.416-.036-.82.043-1.233.079-.46.093-.904.088-1.37v-.245l-.005-.763-.002-.522-.007-1.269c.36-.19.715-.35 1.102-.48l.14-.048.292-.097.439-.148c1.256-.422 1.256-.422 1.922-.409a22.3 22.3 0 0 1-.147 6.352l-.033.206c-.473 2.813-1.73 5.452-3.348 7.77l-.097.14c-.357.508-.753.97-1.176 1.421q-.264.286-.518.581c-1.051 1.17-2.324 2.118-3.648 2.955l-.144.091c-2.062 1.29-4.329 2.157-6.71 2.627l-.217.044c-1.208.225-2.418.29-3.645.285L19.52 40c-.832 0-1.64-.047-2.463-.168l-.223-.03a18.4 18.4 0 0 1-6.033-1.965 27 27 0 0 0-.417-.215c-1.398-.72-2.69-1.664-3.837-2.738l-.285-.245c-.682-.6-1.29-1.253-1.847-1.971l-.175-.22C1.19 28.596-.087 23.789.005 18.93l.003-.185c.08-3.554 1.462-7.363 3.524-10.23l.165-.23c.41-.56.854-1.09 1.305-1.616l.132-.158a14.4 14.4 0 0 1 2.147-2.057l.274-.22a21 21 0 0 1 2.519-1.7l.158-.094c2.833-1.65 6.17-2.455 9.429-2.44"/><path fill="#0B0B0B" d="m13.314 14.457.224-.007c.547-.005.547-.005.834.17.241.274.22.5.217.85l-.002.68-.001.351-.004.86.21-.008q.387-.012.775-.017.167-.003.335-.01.24-.006.482-.01l.292-.006c.26.05.307.066.474.251.148.237.198.34.195.612v.203l-.007.207v.21c-.004.365-.014.638-.257.93-.217.11-.438.083-.676.082h-.157l-.5-.003-.337-.001q-.415 0-.829-.004l.001.227.006 1.714.002.163c0 .23-.01.409-.082.63-.398.287-.703.341-1.186.332l-.174.003c-.292-.002-.444-.02-.698-.177-.265-.286-.23-.583-.228-.951v-.168q0-.266.003-.53v-.36l.004-.883-.24.004-.878.009q-.19 0-.38.004-.274.004-.547.005l-.172.004c-.392 0-.392 0-.572-.124-.213-.34-.167-.724-.169-1.111l-.005-.212c-.003-.66-.003-.66.244-.942.267-.09.51-.083.789-.081h.167l.886.003.877.004-.003-.218q-.006-.4-.009-.803l-.004-.347-.005-.5-.004-.156c0-.324.053-.521.246-.782.177-.179.625-.095.863-.097"/><path fill="#0C0C0C" d="m29.564 17.366.153-.003c.375.003.59.098.876.336.31.365.34.798.323 1.262-.054.406-.183.697-.506.949-.311.132-.577.164-.915.166l-.227.003c-.323-.025-.525-.117-.779-.317-.263-.328-.406-.646-.386-1.073.082-.485.239-.833.626-1.148.288-.16.515-.182.835-.175M27.36 14.523c.31.124.44.305.595.594.189.465.179.932.013 1.403-.2.406-.494.563-.902.717-.452.057-.776.024-1.176-.203-.291-.278-.498-.521-.53-.936-.007-.461-.004-.807.236-1.206.5-.466 1.111-.457 1.764-.37M27.605 20.41c.26.203.387.453.49.76.037.46.055.867-.221 1.255-.356.35-.588.456-1.084.462l-.27.006a1.33 1.33 0 0 1-.952-.486c-.259-.372-.259-.752-.241-1.194.072-.4.238-.62.562-.856.513-.28 1.216-.236 1.716.054"/><path fill="#0B0B0B" d="m23.836 17.367.153-.005c.372.005.585.103.871.337.326.451.349.934.294 1.477-.107.344-.261.638-.587.812a2.27 2.27 0 0 1-1.69-.147c-.338-.34-.38-.622-.387-1.09.008-.708.008-.708.24-1.052.337-.308.66-.324 1.106-.333"/><path fill="#F5F5F5" d="M60.384 14.88v1.488h-2.96V26H55.6v-9.632h-2.976V14.88zm10.727 0V26h-1.824v-4.864h-5.232V26h-1.824V14.88h1.824v4.768h5.232V14.88zm4.225 1.472v3.264h3.84v1.488h-3.84v3.408h4.32V26h-6.144V14.864h6.144v1.488zm12.547 8.176h3.76V26H86.06V14.88h1.824zm11.99-.8h-4.656l-.8 2.272h-1.904l3.984-11.136h2.112L102.593 26h-1.92zm-.512-1.488-1.808-5.168-1.824 5.168zm8.628 3.872q-1.12 0-2.016-.384-.896-.4-1.408-1.12t-.512-1.68h1.952q.064.72.56 1.184.512.465 1.424.464.944 0 1.472-.448.528-.465.528-1.184 0-.56-.336-.912a2.1 2.1 0 0 0-.816-.544q-.48-.192-1.344-.416a14 14 0 0 1-1.776-.576 3 3 0 0 1-1.152-.928q-.48-.623-.48-1.664 0-.96.48-1.68t1.344-1.104 2-.384q1.616 0 2.64.816 1.04.8 1.152 2.208h-2.016q-.048-.608-.576-1.04t-1.392-.432q-.784 0-1.28.4t-.496 1.152q0 .512.304.848.32.32.8.512t1.312.416q1.104.304 1.792.608.704.304 1.184.944.496.624.496 1.68a3 3 0 0 1-.464 1.6q-.448.752-1.328 1.216-.864.448-2.048.448m13.176-11.232v1.488h-2.96V26h-1.824v-9.632h-2.976V14.88zm7.812 0v7.088q0 1.264.656 1.904.672.64 1.856.64 1.2 0 1.856-.64.672-.64.672-1.904V14.88h1.824v7.056q0 1.36-.592 2.304a3.7 3.7 0 0 1-1.584 1.408 5.1 5.1 0 0 1-2.192.464q-1.2 0-2.192-.464a3.6 3.6 0 0 1-1.552-1.408q-.576-.944-.576-2.304V14.88zm17.015 3.312q0 .848-.4 1.6t-1.28 1.232q-.88.464-2.256.464h-2.016V26h-1.824V14.88h3.84q1.28 0 2.16.448.896.432 1.328 1.184.448.752.448 1.68M142.056 20q1.04 0 1.552-.464.512-.48.512-1.344 0-1.824-2.064-1.824h-2.016V20zm9.307-5.12q1.776 0 3.104.688a4.74 4.74 0 0 1 2.064 1.952q.736 1.265.736 2.96t-.736 2.944q-.72 1.248-2.064 1.92-1.328.656-3.104.656h-3.632V14.88zm0 9.632q1.953 0 2.992-1.056 1.04-1.056 1.04-2.976 0-1.936-1.04-3.024t-2.992-1.088h-1.808v8.144zm14.416-.784h-4.656l-.8 2.272h-1.904l3.984-11.136h2.112L168.499 26h-1.92zm-.512-1.488-1.808-5.168-1.824 5.168zm12.148-7.36v1.488h-2.96V26h-1.824v-9.632h-2.976V14.88zm3.672 1.472v3.264h3.84v1.488h-3.84v3.408h4.32V26h-6.144V14.864h6.144v1.488z"/></svg>