<svg width="16" height="16" viewBox="0 0 16 16" fill="none" xmlns="http://www.w3.org/2000/svg">
<path d="M10.9151 4.52006C11.5301 4.51623 12.0838 4.80628 12.5235 5.22364C12.9077 5.63332 13.0422 6.18271 13.1699 6.71439C13.1802 6.7565 13.1905 6.79861 13.2008 6.84072C13.2278 6.9517 13.2547 7.06274 13.2815 7.17379C13.3094 7.28902 13.3374 7.40421 13.3655 7.5194C13.4041 7.67813 13.4426 7.83688 13.481 7.99565C13.5341 8.21493 13.5876 8.43409 13.6417 8.65313C13.7367 9.03889 13.8296 9.42471 13.9081 9.8143C13.9139 9.84293 13.9196 9.87156 13.9256 9.90105C14.0235 10.408 14.0689 11.0028 13.7672 11.4532C13.7089 11.5282 13.6484 11.5995 13.5847 11.67C13.5586 11.6993 13.5586 11.6993 13.532 11.7292C13.2672 12.0111 12.9068 12.1531 12.5226 12.1782C11.9675 12.1858 11.543 11.9899 11.1408 11.611C10.958 11.4212 10.8209 11.2016 10.6771 10.9816C10.4213 10.5907 10.2236 10.3391 9.74971 10.2363C9.60535 10.217 9.4628 10.2178 9.31732 10.2176C9.26816 10.2174 9.26816 10.2174 9.21802 10.2172C9.10981 10.2167 9.00161 10.2165 8.89341 10.2164C8.81797 10.2162 8.74254 10.216 8.66711 10.2158C8.52916 10.2156 8.39121 10.2154 8.25326 10.2153C8.05098 10.2152 7.8487 10.2147 7.64642 10.2138C7.47055 10.2131 7.29468 10.2128 7.11881 10.2128C7.04432 10.2127 6.96984 10.2125 6.89536 10.2121C6.79088 10.2116 6.68642 10.2116 6.58195 10.2118C6.5515 10.2116 6.52105 10.2113 6.48968 10.211C6.19469 10.2127 5.83871 10.2661 5.62105 10.4848C5.47728 10.6573 5.35996 10.8484 5.23959 11.0377C4.8956 11.5771 4.50949 11.9805 3.87572 12.15C3.3956 12.2458 2.97821 12.1253 2.57723 11.8591C2.56188 11.8454 2.54653 11.8318 2.53072 11.8177C2.51418 11.801 2.50169 11.7885 2.49052 11.7773C2.46956 11.7562 2.45784 11.7431 2.44252 11.729C2.42387 11.7103 2.40331 11.6896 2.40198 11.6883C2.40064 11.6869 2.39503 11.6813 2.38373 11.67C2.09611 11.329 1.94874 10.9052 1.97214 10.4587C2.02066 9.91579 2.14027 9.38946 2.26892 8.86136C2.32081 8.64697 2.36955 8.4319 2.41795 8.21668C2.42615 8.18027 2.43434 8.14386 2.44279 8.10634C2.47583 7.95944 2.50884 7.81254 2.54167 7.6656C2.62756 7.28143 2.71612 6.8981 2.81265 6.51648C2.8205 6.48485 2.82835 6.45323 2.83644 6.42064C3.00322 5.77213 3.29611 5.20128 3.88307 4.84558C4.26017 4.64402 4.59929 4.54602 5.02631 4.54548C5.05122 4.54533 5.07613 4.54519 5.10179 4.54504C5.18452 4.54459 5.26725 4.54434 5.34998 4.54409C5.40959 4.54381 5.46921 4.54351 5.52882 4.5432C5.69021 4.54241 5.85159 4.54178 6.01298 4.54119C6.18209 4.54055 6.35121 4.53974 6.52033 4.53895C6.84062 4.53747 7.16091 4.53615 7.48121 4.53487C7.84497 4.53341 8.20873 4.53179 8.57249 4.53015C9.10878 4.52774 9.64506 4.5254 10.1813 4.52322C10.2393 4.52298 10.2973 4.52274 10.3553 4.5225C10.4345 4.52217 10.5138 4.52185 10.5931 4.52153C10.6159 4.52144 10.6387 4.52135 10.6622 4.52125C10.7046 4.52108 10.747 4.52094 10.7895 4.52083C10.8313 4.52068 10.8732 4.52042 10.9151 4.52006Z" fill="#F4F4F3"/>
<path d="M7.86421 7.39075e-05C7.89126 0.000147395 7.91831 0.000220882 7.94618 0.000296596C8.94376 0.00447262 9.88764 0.180429 10.8206 0.541075C10.8431 0.549596 10.8657 0.558117 10.8888 0.566896C11.7311 0.887791 12.5039 1.38508 13.1914 1.96559C13.2541 2.02414 13.2541 2.02414 13.3196 2.01821C13.3575 1.97544 13.3933 1.93074 13.428 1.88527C13.5067 1.78413 13.5856 1.68375 13.6687 1.58615C13.685 1.56688 13.7013 1.54761 13.718 1.52776C13.7605 1.48644 13.7605 1.48644 13.8193 1.48644C13.9088 1.76462 13.9982 2.04282 14.0876 2.32102C14.0942 2.34172 14.1009 2.36241 14.1077 2.38373C14.304 2.99451 14.4992 3.60557 14.692 4.21744C14.6998 4.24201 14.7075 4.26658 14.7155 4.2919C14.7302 4.33848 14.7449 4.38507 14.7595 4.43166C14.8094 4.5897 14.862 4.74667 14.917 4.903C14.9365 4.97248 14.9365 4.97248 14.9365 5.09065C14.7127 5.04526 14.4984 4.97932 14.2812 4.90901C14.2432 4.8968 14.2051 4.88459 14.1671 4.8724C14.0866 4.8466 14.0062 4.82073 13.9257 4.7948C13.7164 4.72733 13.5069 4.66024 13.2974 4.59316C13.2767 4.58652 13.256 4.57989 13.2346 4.57305C12.8317 4.44399 12.4279 4.31815 12.0231 4.19527C11.7664 4.11704 11.5133 4.03172 11.2616 3.93849C11.89 3.30456 11.89 3.30456 12.1142 3.22946C12.1142 3.20022 12.1142 3.17097 12.1142 3.14083C12.0968 3.13261 12.0795 3.12439 12.0616 3.11592C12.001 3.08406 11.9514 3.0501 11.8977 3.00778C11.8699 2.98611 11.8699 2.98611 11.8415 2.96401C11.8217 2.94864 11.802 2.93326 11.7816 2.91742C10.4792 1.92207 8.7655 1.45572 7.1421 1.67108C5.78015 1.86682 4.58636 2.45559 3.58851 3.40672C3.56393 3.42991 3.56393 3.42991 3.53885 3.45357C3.25774 3.72034 3.02021 4.00729 2.79473 4.32254C2.78202 4.3399 2.76931 4.35727 2.75622 4.37515C2.22207 5.10834 1.84928 5.99472 1.70697 6.89276C1.70182 6.92389 1.69668 6.95503 1.69137 6.9871C1.64163 7.32763 1.6392 7.66576 1.64051 8.00948C1.64083 8.10774 1.64051 8.20598 1.64014 8.30423C1.63997 8.59778 1.64178 8.88384 1.69347 9.17351C1.74562 9.49285 1.68475 9.8003 1.62883 10.1141C1.60841 10.2318 1.59546 10.3482 1.58938 10.4674C1.58748 10.5021 1.58559 10.5368 1.58364 10.5726C1.56196 11.1569 1.73659 11.686 2.12464 12.1291C2.2656 12.2688 2.41971 12.3753 2.58894 12.4763C2.61649 12.4934 2.64404 12.5104 2.67243 12.5279C2.86137 12.6301 3.02632 12.6639 3.2377 12.6897C3.61612 12.7361 3.82023 12.8184 4.09469 13.0794C4.87972 13.7814 6.0465 14.1364 7.05758 14.308C7.09207 14.3142 7.12655 14.3203 7.16208 14.3267C7.73588 14.4122 8.33714 14.3971 8.90971 14.308C8.93521 14.3043 8.9607 14.3007 8.98697 14.2969C10.0325 14.1459 11.2927 13.7081 12.0631 12.942C12.2652 12.7481 12.4674 12.7329 12.7341 12.7016C13.2481 12.6408 13.7084 12.3853 14.0325 11.9796C14.254 11.6621 14.4232 11.2718 14.4367 10.881C14.4382 10.8438 14.4397 10.8065 14.4413 10.7682C14.4514 10.3889 14.4072 10.0161 14.3313 9.64462C14.2993 9.47796 14.3169 9.31667 14.3485 9.15125C14.3799 8.96705 14.3855 8.78952 14.3837 8.60301C14.3836 8.57072 14.3835 8.53844 14.3834 8.50517C14.3831 8.40346 14.3823 8.30174 14.3816 8.20003C14.3813 8.13048 14.381 8.06093 14.3808 7.99138C14.3801 7.82212 14.3792 7.65287 14.3779 7.48362C14.522 7.40787 14.6641 7.34335 14.8187 7.29136C14.8372 7.28511 14.8558 7.27886 14.8749 7.27242C14.9137 7.25938 14.9526 7.24642 14.9915 7.23356C15.0502 7.21412 15.1087 7.19431 15.1672 7.17446C15.6697 7.00571 15.6697 7.00571 15.9361 7.01093C16.0383 7.86825 16.0174 8.70132 15.8773 9.55161C15.8707 9.59234 15.8707 9.59234 15.8639 9.63389C15.6747 10.7592 15.1717 11.8146 14.5249 12.7422C14.5121 12.7607 14.4992 12.7792 14.4859 12.7982C14.3432 13.0013 14.1849 13.1858 14.0157 13.3665C13.9449 13.4427 13.8765 13.5204 13.8083 13.599C13.3879 14.067 12.8788 14.4461 12.3494 14.7807C12.3303 14.7927 12.3112 14.8048 12.2916 14.8172C11.4668 15.3331 10.5601 15.68 9.60794 15.8682C9.56476 15.8768 9.56476 15.8768 9.52072 15.8857C9.03752 15.9758 8.55356 16.0018 8.06299 15.9996C7.97787 15.9993 7.89277 15.9996 7.80765 16C7.47472 16.0003 7.15179 15.981 6.82239 15.9328C6.79293 15.9288 6.76346 15.9248 6.73311 15.9207C5.89717 15.8031 5.06567 15.5329 4.31985 15.1349C4.26457 15.1056 4.20893 15.077 4.15317 15.0486C3.59415 14.7608 3.07752 14.383 2.61834 13.9535C2.58047 13.9207 2.5425 13.8881 2.50442 13.8556C2.23156 13.6158 1.98864 13.3543 1.76577 13.0672C1.74258 13.0381 1.71939 13.0091 1.69549 12.9791C0.476322 11.4384 -0.0348401 9.51569 0.00183551 7.57224C0.00224764 7.54787 0.00265977 7.52349 0.00308439 7.49837C0.0350303 6.07694 0.588091 4.55326 1.41298 3.40672C1.43466 3.37629 1.45634 3.34586 1.47867 3.31451C1.64247 3.09009 1.82021 2.87876 2.00096 2.66815C2.0184 2.64728 2.03583 2.62641 2.05379 2.60491C2.31088 2.30052 2.59877 2.02649 2.91233 1.78187C2.94886 1.75249 2.98538 1.7231 3.02189 1.6937C3.34139 1.43929 3.67763 1.22021 4.02949 1.01376C4.05038 1.00143 4.07127 0.9891 4.09279 0.976398C5.22583 0.316698 6.56077 -0.00561155 7.86421 7.39075e-05Z" fill="#E62224"/>
<path d="M5.32563 5.78273C5.35511 5.78187 5.38459 5.78101 5.41497 5.78013C5.63372 5.77823 5.63372 5.77823 5.74869 5.84793C5.84515 5.95769 5.83664 6.04809 5.83563 6.18825C5.83559 6.2098 5.83554 6.23136 5.8355 6.25357C5.83534 6.3225 5.83497 6.39143 5.83459 6.46036C5.83445 6.50706 5.83431 6.55376 5.83419 6.60046C5.83387 6.71501 5.83336 6.82957 5.83276 6.94412C5.86049 6.9432 5.88821 6.94227 5.91678 6.94131C6.02007 6.93828 6.12331 6.93606 6.22662 6.93439C6.27125 6.9335 6.31588 6.93229 6.3605 6.93075C6.4248 6.92859 6.48904 6.92759 6.55338 6.92681C6.61134 6.92542 6.61134 6.92542 6.67048 6.924C6.77446 6.94431 6.79315 6.95051 6.85969 7.02459C6.91913 7.11917 6.93892 7.16014 6.93797 7.26921C6.9379 7.29596 6.93782 7.32271 6.93774 7.35028C6.93691 7.37772 6.93608 7.40516 6.93522 7.43343C6.93533 7.47475 6.93533 7.47475 6.93545 7.51692C6.93337 7.6632 6.92951 7.77244 6.83232 7.88949C6.74536 7.93319 6.65726 7.92264 6.56199 7.92192C6.54119 7.92188 6.52039 7.92184 6.49896 7.92179C6.43246 7.92163 6.36597 7.92126 6.29947 7.92088C6.25441 7.92073 6.20935 7.9206 6.1643 7.92048C6.05378 7.92015 5.94327 7.91964 5.83276 7.91903C5.83291 7.949 5.83307 7.97896 5.83322 8.00983C5.83376 8.12099 5.83409 8.23215 5.83437 8.34331C5.83452 8.39143 5.83472 8.43954 5.83498 8.48765C5.83533 8.5568 5.8355 8.62595 5.83563 8.69511C5.83578 8.71662 5.83593 8.73813 5.83609 8.7603C5.8361 8.85247 5.8326 8.92397 5.80336 9.01211C5.64446 9.12718 5.52236 9.14892 5.3293 9.14506C5.30622 9.14551 5.28314 9.14597 5.25936 9.14644C5.14278 9.14565 5.08175 9.13856 4.98042 9.07582C4.87443 8.96143 4.88808 8.84252 4.88912 8.69511C4.88916 8.67294 4.8892 8.65077 4.88925 8.62793C4.88941 8.55719 4.88978 8.48646 4.89015 8.41572C4.8903 8.36773 4.89044 8.31975 4.89056 8.27176C4.89088 8.15418 4.89139 8.03661 4.89199 7.91903C4.86039 7.9195 4.82879 7.91996 4.79624 7.92044C4.67905 7.92204 4.56185 7.92306 4.44466 7.9239C4.39392 7.92435 4.34319 7.92495 4.29246 7.92572C4.21956 7.92679 4.14667 7.9273 4.07376 7.92769C4.03972 7.92837 4.03972 7.92837 4.00499 7.92907C3.84833 7.92912 3.84833 7.92912 3.77636 7.87972C3.69102 7.74365 3.70952 7.59009 3.70868 7.43527C3.70808 7.40732 3.70747 7.37937 3.70685 7.35057C3.70537 7.08647 3.70537 7.08647 3.80423 6.97367C3.91102 6.9379 4.00859 6.94045 4.1197 6.94124C4.15279 6.9413 4.15279 6.9413 4.18655 6.94137C4.25694 6.94153 4.32733 6.9419 4.39772 6.94228C4.44548 6.94243 4.49323 6.94256 4.54098 6.94268C4.65799 6.94301 4.77499 6.94352 4.89199 6.94412C4.89153 6.91536 4.89107 6.88661 4.89059 6.85697C4.88899 6.74989 4.88798 6.64281 4.88715 6.53571C4.8867 6.48943 4.8861 6.44316 4.88534 6.39688C4.88426 6.33022 4.88377 6.26357 4.88338 6.1969C4.88292 6.17634 4.88247 6.15578 4.882 6.13459C4.88195 6.00476 4.90312 5.92585 4.98019 5.8215C5.05126 5.75008 5.23028 5.78364 5.32563 5.78273Z" fill="#0B0B0B"/>
<path d="M11.8258 6.94645C11.856 6.94577 11.856 6.94577 11.8869 6.94507C12.0369 6.94622 12.1228 6.98426 12.2374 7.0794C12.3611 7.2256 12.3731 7.39881 12.3664 7.58428C12.3449 7.74662 12.2934 7.86297 12.1639 7.96383C12.0396 8.0169 11.9334 8.02945 11.7982 8.0303C11.7683 8.03072 11.7383 8.03114 11.7074 8.03157C11.5781 8.0215 11.4973 7.98483 11.3958 7.90475C11.2904 7.77366 11.2333 7.6465 11.2415 7.47545C11.274 7.28174 11.3368 7.14224 11.4919 7.01639C11.6068 6.9522 11.6978 6.94355 11.8258 6.94645Z" fill="#0C0C0C"/>
<path d="M10.944 5.80907C11.0683 5.85872 11.1203 5.93122 11.1822 6.04691C11.2578 6.23297 11.2536 6.41943 11.1873 6.60811C11.1076 6.77044 10.9899 6.83316 10.8264 6.89476C10.646 6.91743 10.5162 6.90422 10.356 6.81352C10.2397 6.70243 10.1568 6.60518 10.1443 6.43916C10.1415 6.25478 10.1425 6.11636 10.2384 5.95678C10.4385 5.77039 10.683 5.77408 10.944 5.80907Z" fill="#0C0C0C"/>
<path d="M11.0419 8.16429C11.146 8.24502 11.1968 8.34508 11.2375 8.46791C11.2525 8.65172 11.2597 8.81489 11.1493 8.97014C11.007 9.11012 10.9142 9.15226 10.7157 9.15478C10.6801 9.15554 10.6445 9.1563 10.6078 9.15709C10.4507 9.14262 10.3296 9.08394 10.227 8.96275C10.1236 8.81394 10.1234 8.66203 10.1306 8.48511C10.1596 8.32511 10.226 8.23728 10.3556 8.14294C10.5607 8.0305 10.8417 8.04847 11.0419 8.16429Z" fill="#0C0C0C"/>
<path d="M9.53446 6.94649C9.55459 6.94594 9.57472 6.94539 9.59546 6.94482C9.74454 6.94669 9.82953 6.98586 9.94421 7.07943C10.0745 7.25996 10.0836 7.453 10.0618 7.67029C10.0186 7.80797 9.95712 7.92559 9.82661 7.99526C9.60376 8.06259 9.35749 8.0436 9.15044 7.93617C9.01539 7.80047 8.99849 7.68752 8.99609 7.50042C8.99929 7.21714 8.99929 7.21714 9.09164 7.07943C9.22679 6.95625 9.35636 6.94973 9.53446 6.94649Z" fill="#0B0B0B"/>
</svg>
